<?xml version="1.0" encoding="UTF-8" standalone="no"?>
<svg
   width="256"
   height="256"
   viewBox="0 0 256 256"
   version="1.1"
   id="svg16"
   sodipodi:docname="UncOpener.svg"
   inkscape:version="1.3 (0e150ed6c4, 2023-07-21)"
   xmlns:inkscape="http://www.inkscape.org/namespaces/inkscape"
   xmlns:sodipodi="http://sodipodi.sourceforge.net/DTD/sodipodi-0.dtd"
   xmlns="http://www.w3.org/2000/svg"
   xmlns:svg="http://www.w3.org/2000/svg">
  <defs
     id="defs16" />
  <sodipodi:namedview
     id="namedview16"
     pagecolor="#ffffff"
     bordercolor="#000000"
     borderopacity="0.25"
     inkscape:showpageshadow="2"
     inkscape:pageopacity="0.0"
     inkscape:pagecheckerboard="0"
     inkscape:deskcolor="#d1d1d1"
     inkscape:zoom="4.4179688"
     inkscape:cx="127.88683"
     inkscape:cy="128"
     inkscape:window-width="3440"
     inkscape:window-height="1369"
     inkscape:window-x="-8"
     inkscape:window-y="-8"
     inkscape:window-maximized="1"
     inkscape:current-layer="svg16" />
  <circle
     cx="128"
     cy="128"
     r="128"
     fill="#d9d9d9"
     id="circle1"
     style="stroke-width:0.967742" />
  <circle
     cx="128"
     cy="128"
     r="119.46667"
     fill="#2f343a"
     id="circle2"
     style="stroke-width:0.967742" />
  <path
     d="M 44.800002,57.600002 H 102.4 l 10.66667,10.666667 h 61.86667 c 6.4,0 10.66667,4.266667 10.66667,10.666667 V 140.8 c 0,6.4 -4.26667,10.66667 -10.66667,10.66667 H 44.800002 c -6.4,0 -10.666667,-4.26667 -10.666667,-10.66667 V 68.266669 c 0,-6.4 4.266667,-10.666667 10.666667,-10.666667 z"
     fill="#2e86ff"
     id="path2"
     style="stroke-width:1" />
  <path
     d="m 34.133335,78.933336 c 0,-6.4 4.266667,-10.666667 10.666667,-10.666667 H 164.26667 c 6.4,0 10.66667,4.266667 10.66667,10.666667 V 134.4 c 0,6.4 -4.26667,10.66667 -10.66667,10.66667 H 44.800002 c -6.4,0 -10.666667,-4.26667 -10.666667,-10.66667 z"
     fill="#4da2ff"
     id="path3"
     style="stroke-width:1" />
  <rect
     x="77.066673"
     y="90"
     width="46.933334"
     height="34.133335"
     rx="3.9999998"
     fill="#ffffff"
     id="rect3"
     ry="3.9999998"
     style="stroke-width:1" />
  <rect
     x="83.466667"
     y="96.400002"
     width="34.133335"
     height="21.333334"
     rx="1.9999999"
     fill="#2f343a"
     id="rect4"
     ry="1.9999999"
     style="stroke-width:1" />
  <rect
     x="94.133339"
     y="126.26668"
     width="12.8"
     height="8.5333338"
     rx="1.9999999"
     fill="#ffffff"
     id="rect5"
     ry="1.9999999"
     style="stroke-width:1" />
  <rect
     x="85.600006"
     y="134.8"
     width="29.866667"
     height="6.4000001"
     rx="3"
     fill="#ffffff"
     id="rect6"
     ry="3"
     style="stroke-width:1" />
  <path
     d="m 132.53334,92.133336 12.8,34.133334"
     stroke="#ffffff"
     stroke-width="10"
     stroke-linecap="round"
     id="path6" />
  <path
     d="m 151.73334,92.133336 12.8,34.133334"
     stroke="#ffffff"
     stroke-width="10"
     stroke-linecap="round"
     id="path7" />
  <path
     d="m 185.60001,93.600003 h 19.2 V 108.53334 L 232.53334,85.066669 204.80001,61.600002 v 14.933334 h -19.2 c -6.4,0 -10.66667,4.266666 -10.66667,10.666667 v 6.4 c 0,6.399997 4.26667,10.666667 10.66667,10.666667 z"
     fill="#33b24a"
     id="path8"
     style="stroke-width:1" />
  <g
     transform="matrix(1.0666667,0,0,1.0666667,-21.333334,-8.5333336)"
     id="g16"
     style="stroke-width:0.9375" />
  <path
     style="font-size:73.629px;font-family:Arial;-inkscape-font-specification:'Arial, Normal';text-align:center;text-anchor:middle;fill:#f9f9f9;stroke:#1a1a1a;stroke-width:0.3"
     d="m 82.470572,158.60663 h 7.7582 v 31.14723 q 0,8.12697 -1.999536,12.90753 -1.999536,4.78057 -7.238321,7.79601 -5.198793,2.97866 -13.676826,2.97866 -8.238089,0 -13.476873,-2.61093 -5.238784,-2.61092 -7.478264,-7.53858 -2.239481,-4.96444 -2.239481,-13.53269 v -31.14723 h 7.7582 v 31.11046 q 0,7.02376 1.399675,10.37016 1.439666,3.30962 4.878868,5.11153 3.479192,1.8019 8.478033,1.8019 8.558014,0 12.197169,-3.56704 3.639156,-3.56703 3.639156,-13.71655 z m 20.595218,53.91009 v -53.91009 h 7.95816 l 30.79285,42.32641 v -42.32641 h 7.43828 v 53.91009 h -7.95815 l -30.79286,-42.36318 v 42.36318 z m 101.05655,-18.90162 7.7582,1.8019 q -2.43943,8.78888 -8.79795,13.42236 -6.31854,4.5967 -15.47641,4.5967 -9.47781,0 -15.43642,-3.53027 -5.91863,-3.56703 -9.03791,-10.2966 -3.07928,-6.72957 -3.07928,-14.45203 0,-8.42115 3.47919,-14.67266 3.51919,-6.28828 9.95769,-9.52436 6.4785,-3.27285 14.2367,-3.27285 8.79796,0 14.79657,4.11864 5.99861,4.11865 8.35805,11.58368 l -7.63822,1.65482 q -2.03953,-5.88378 -5.91863,-8.56825 -3.8791,-2.68448 -9.75773,-2.68448 -6.75843,0 -11.31737,2.97866 -4.51896,2.97867 -6.35854,8.01665 -1.83956,5.00121 -1.83956,10.33338 0,6.87666 2.1595,12.02497 2.19949,5.11153 6.79842,7.64891 4.59893,2.53737 9.95768,2.53737 6.51849,0 11.03744,-3.45671 4.51896,-3.45673 6.11858,-10.25983 z"
     id="text17"
     aria-label="UNC" />
</svg>
